<svg width="218" height="215" viewBox="0 0 218 215" fill="none" xmlns="http://www.w3.org/2000/svg">
<path d="M134.384 161.739C129.015 169.415 118.491 180.314 104.278 188.224C90.0473 196.144 72.0544 201.1 51.8281 196.735L52.3789 194.183C71.8439 198.383 89.1901 193.633 103.008 185.943C116.845 178.242 127.081 167.624 132.244 160.242L134.384 161.739Z" fill="url(#paint0_linear_1125_330)"/>
<path d="M137.961 8.21408C92.0369 15.6278 68.3154 54.2488 62.2209 72.618L59.7422 71.7959C66.0077 52.911 90.2987 13.2636 137.545 5.63647L137.961 8.21408Z" fill="url(#paint1_linear_1125_330)"/>
<path d="M102.206 3.95869C82.8923 11.7251 70.4927 27.9755 62.8432 45.2968C55.1932 62.6193 52.3622 80.8688 52.1044 92.3434L49.4941 92.2843C49.7586 80.5186 52.6463 61.9229 60.4548 44.2416C68.264 26.5588 81.0634 9.64623 101.232 1.53613L102.206 3.95869Z" fill="url(#paint2_linear_1125_330)"/>
<path d="M60.5148 15.7278C51.38 29.8917 47.4322 47.1918 46.24 63.1391C45.0484 79.0792 46.6188 93.5515 48.4213 101.963L45.8677 102.51C44.0145 93.8616 42.4252 79.1398 43.6359 62.9442C44.8461 46.7557 48.8628 28.9774 58.3202 14.313L60.5148 15.7278Z" fill="url(#paint3_linear_1125_330)"/>
<path d="M17.2856 57.5366C15.2914 62.6436 15.6036 68.9187 17.6069 75.8644C19.6056 82.7944 23.2471 90.2492 27.7153 97.6098C36.6507 112.329 48.7742 126.481 57.2104 135.003L55.355 136.841C46.8179 128.216 34.5522 113.904 25.483 98.9644C20.9489 91.4953 17.1838 83.8209 15.0976 76.5876C13.016 69.3701 12.5646 62.4471 14.8528 56.5869L17.2856 57.5366Z" fill="url(#paint4_linear_1125_330)"/>
<path d="M4.49153 116.913C6.56151 122.285 11.1451 127.439 17.3969 132.258C23.6314 137.064 31.4167 141.455 39.7237 145.334C56.3379 153.093 74.8804 158.733 86.8709 161.547L86.2741 164.089C74.1539 161.245 55.4334 155.553 38.619 147.7C30.212 143.774 22.2419 139.29 15.8026 134.326C9.38064 129.376 4.37168 123.864 2.05469 117.851L4.49153 116.913Z" fill="url(#paint5_linear_1125_330)"/>
<path d="M203.42 159.222C195.883 174.361 186.644 183.805 176.551 189.037C166.46 194.269 155.642 195.226 145.064 193.616C123.972 190.407 103.641 176.973 91.2109 166.425L92.9001 164.434C105.19 174.863 125.073 187.933 145.456 191.035C155.616 192.58 165.852 191.643 175.35 186.719C184.847 181.795 193.734 172.818 201.082 158.058L203.42 159.222Z" fill="url(#paint6_linear_1125_330)"/>
<path d="M56.5313 132.179C54.5431 146.961 54.5735 169.05 62.8748 186.208C67.0098 194.754 73.1776 202.04 82.1487 206.635C91.1241 211.232 103.033 213.2 118.762 210.879L119.144 213.463C103.014 215.843 90.5287 213.861 80.9584 208.96C71.3838 204.056 64.854 196.294 60.5242 187.345C51.896 169.512 51.9278 146.818 53.9435 131.831L56.5313 132.179Z" fill="url(#paint7_linear_1125_330)"/>
<path d="M53.5018 83.6222C41.6904 94.2655 26.1162 112.063 18.7138 130.086C15.0161 139.089 13.4086 148.024 15.1983 156.105C16.976 164.132 22.1458 171.501 32.3852 177.352L31.0898 179.619C20.3082 173.459 14.6085 165.519 12.6487 156.67C10.7011 147.876 12.4881 138.369 16.2979 129.093C23.9106 110.559 39.8029 92.4512 51.754 81.6821L53.5018 83.6222Z" fill="url(#paint8_linear_1125_330)"/>
<path d="M49.9922 102.526C41.7099 112.954 31.7722 132.13 29.2096 150.626C27.9302 159.861 28.5039 168.821 31.9341 176.418C35.3463 183.975 41.6374 190.303 52.0434 194.237L51.1198 196.68C40.1134 192.519 33.2717 185.725 29.5544 177.493C25.8553 169.3 25.3026 159.801 26.6234 150.268C29.2613 131.227 39.4307 111.626 47.9475 100.902L49.9922 102.526Z" fill="url(#paint9_linear_1125_330)"/>
<path d="M51.5002 117.048C46.103 131.771 41.472 154.447 44.5136 173.349C46.0317 182.784 49.4419 191.165 55.5028 197.18C61.5375 203.169 70.335 206.948 82.915 206.948V209.56C69.7746 209.56 60.2718 205.592 53.6637 199.033C47.082 192.501 43.5074 183.533 41.9355 173.764C38.7969 154.259 43.5656 131.107 49.0486 116.149L51.5002 117.048Z" fill="url(#paint10_linear_1125_330)"/>
<path d="M81.3174 54.4306C63.9507 57.5055 39.4955 64.7731 22.4435 76.5142C13.9211 82.3823 7.37083 89.2836 4.38753 97.2166C1.42855 105.085 1.90871 114.153 7.80461 124.573L5.53199 125.859C-0.688253 114.866 -1.32634 104.992 1.94303 96.2976C5.18816 87.6682 12.2136 80.387 20.9624 74.3629C38.4531 62.3198 63.3247 54.9642 80.8619 51.8591L81.3174 54.4306Z" fill="url(#paint11_linear_1125_330)"/>
<path d="M66.3006 65.7851C52.0163 73.4467 32.3326 86.8771 19.6217 102.24C13.2665 109.921 8.73681 117.987 7.41047 125.974C6.0954 133.894 7.90897 141.837 14.4476 149.432L12.4688 151.136C5.42906 142.959 3.39142 134.236 4.8344 125.546C6.26622 116.924 11.1045 108.437 17.6097 100.575C30.6198 84.8508 50.627 71.2287 65.0664 63.4839L66.3006 65.7851Z" fill="url(#paint12_linear_1125_330)"/>
<path d="M31.849 51.0845C50.3959 45.5326 73.9155 46.1819 89.8885 48.4575L89.5203 51.0427C73.723 48.7921 50.6308 48.1882 32.5982 53.5862C23.5874 56.2835 15.9772 60.4388 11.1247 66.4982C6.31265 72.5069 4.09236 80.537 6.12092 91.2884L3.55504 91.7724C1.40565 80.3804 3.73336 71.5502 9.08613 64.8661C14.3984 58.2327 22.5703 53.8621 31.849 51.0845Z" fill="url(#paint13_linear_1125_330)"/>
<path d="M25.6865 37.3583C32.2835 32.4257 40.9211 30.7147 50.1371 30.9627C68.5468 31.4582 89.8908 39.7876 103.9 47.2698L102.67 49.5731C88.8119 42.1716 67.8887 34.0526 50.0667 33.5729C41.1669 33.3334 33.1973 35.0031 27.2502 39.4498C21.3458 43.8647 17.2352 51.168 16.3258 62.6386L13.7227 62.4325C14.6768 50.3972 19.0471 42.3227 25.6865 37.3583Z" fill="url(#paint14_linear_1125_330)"/>
<path d="M52.6108 15.9459C60.9439 13.4493 70.1654 14.5363 79.2906 17.6259C97.5204 23.7981 115.865 38.1314 127.184 49.415L125.341 51.2643C114.155 40.1137 96.1451 26.0891 78.4531 20.0989C69.6174 17.1074 60.9861 16.1622 53.36 18.447C45.7833 20.7171 39.0117 26.2316 33.9514 36.5469L31.6074 35.3968C36.9342 24.5383 44.2283 18.4573 52.6108 15.9459Z" fill="url(#paint15_linear_1125_330)"/>
<path d="M58.3789 15.2712C64.4364 7.35833 71.9252 4.36963 80.0091 4.89193C87.9911 5.40769 96.4343 9.33459 104.594 14.957C120.927 26.2119 136.647 44.6305 146.134 58.1393L143.997 59.6398C134.595 46.2526 119.085 28.1134 103.112 17.1073C95.1188 11.5993 87.1405 7.96979 79.8408 7.4981C72.6427 7.03303 65.9892 9.62595 60.4526 16.8584L58.3789 15.2712Z" fill="url(#paint16_linear_1125_330)"/>
<path d="M82.6699 4.41742C93.4747 -0.146083 103.243 -0.0278273 111.857 3.19339C120.436 6.40093 127.771 12.6455 133.841 20.1743C145.966 35.2117 153.286 55.6691 155.492 68.5929L152.917 69.0325C150.77 56.4529 143.598 36.4356 131.808 21.8134C125.921 14.5124 118.943 8.63093 110.942 5.63941C102.979 2.66164 93.9018 2.50785 83.6859 6.82264L82.6699 4.41742Z" fill="url(#paint17_linear_1125_330)"/>
<path d="M109.01 1.21077C121.187 -1.46551 131.009 0.448729 138.823 5.43725C139.333 5.76251 139.833 6.10098 140.324 6.45116C152.368 7.77055 160.958 12.3675 166.843 19.0908C172.762 25.8529 175.84 34.6463 177.074 44.0978C179.538 62.9681 174.703 84.8628 169.806 99.7718L167.326 98.9568C172.178 84.1844 176.874 62.7316 174.485 44.4359C173.293 35.3045 170.349 27.0601 164.879 20.8106C160.169 15.4293 153.508 11.438 144.25 9.67342C149.32 14.4265 153.266 20.6002 156.311 27.4484C164.411 45.6685 166.306 69.0692 165.693 84.7922L163.083 84.6902C163.689 69.165 161.797 46.2158 153.925 28.5092C149.994 19.6671 144.617 12.2345 137.417 7.63847C130.255 3.06599 121.156 1.21523 109.571 3.76135L109.01 1.21077Z" fill="url(#paint18_linear_1125_330)"/>
<path d="M164.758 17.1631C177.864 21.0412 185.928 28.2195 190.206 37.3479C194.458 46.4222 194.891 57.2597 193.095 68.3684C189.505 90.5712 176.92 114.389 166.761 128.839L164.626 127.338C174.661 113.063 187.014 89.6176 190.517 67.9512C192.268 57.1253 191.787 46.8767 187.841 38.4556C183.921 30.0886 176.502 23.3618 164.018 19.6672L164.758 17.1631Z" fill="url(#paint19_linear_1125_330)"/>
<path d="M187.97 32.3201C199.802 42.7564 205.437 54.0661 206.659 65.5489C207.878 76.9985 204.694 88.4698 199.17 99.2419C188.137 120.757 167.589 139.831 152.908 151.06L151.322 148.986C165.887 137.845 186.075 119.055 196.847 98.0505C202.225 87.5626 205.21 76.6097 204.062 65.8254C202.918 55.0745 197.651 44.3406 186.243 34.2785L187.97 32.3201Z" fill="url(#paint20_linear_1125_330)"/>
<path d="M206.152 60.6963C215.3 72.3809 217.951 84.0226 216.115 95.0258C214.287 105.977 208.04 116.143 199.676 125.002C182.969 142.7 157.467 155.553 140.125 159.392L139.561 156.843C156.425 153.11 181.451 140.504 197.777 123.21C205.93 114.574 211.825 104.862 213.539 94.5963C215.244 84.3831 212.836 73.4698 204.096 62.3059L206.152 60.6963Z" fill="url(#paint21_linear_1125_330)"/>
<path d="M165.434 106.937C165.434 75.0149 139.897 49.2281 108.508 49.2281C77.1188 49.2281 51.5823 75.0149 51.5823 106.937C51.5823 138.859 77.1188 164.646 108.508 164.646V168.824C74.7613 168.824 47.4043 141.116 47.4043 106.937C47.4043 72.7578 74.7613 45.05 108.508 45.05C142.255 45.05 169.612 72.7578 169.612 106.937C169.612 141.116 142.255 168.824 108.508 168.824V164.646C139.897 164.646 165.434 138.859 165.434 106.937Z" fill="url(#paint22_linear_1125_330)"/>
<path d="M65.3877 146.596C68.8805 161.731 77.4937 182.553 91.1143 196.418C97.9094 203.335 105.9 208.47 115.077 210.365C124.235 212.256 134.71 210.948 146.548 204.747L147.76 207.061C135.47 213.499 124.382 214.952 114.548 212.922C104.733 210.895 96.3022 205.425 89.2512 198.248C75.1794 183.924 66.4014 162.599 62.8438 147.183L65.3877 146.596Z" fill="url(#paint23_linear_1125_330)"/>
<path d="M111.676 29.0184C126.991 20.9115 145.621 15.2938 165.101 18.1679L164.719 20.7511C145.97 17.9849 127.912 23.3783 112.897 31.3262C97.8818 39.2745 86.0191 49.7219 79.7183 56.8799L77.7578 55.1545C84.2523 47.7765 96.3613 37.125 111.676 29.0184Z" fill="url(#paint24_linear_1125_330)"/>
<path d="M79.872 159.297C86.8592 171.503 100.746 189.232 117.692 198.626C126.143 203.31 135.283 205.883 144.68 204.747C154.061 203.613 163.862 198.763 173.617 188.301L175.527 190.082C165.437 200.902 155.099 206.117 144.993 207.339C134.903 208.558 125.21 205.778 116.426 200.909C98.9035 191.197 84.7191 173.021 77.6055 160.594L79.872 159.297Z" fill="url(#paint25_linear_1125_330)"/>
<path d="M212.955 132.892C211.836 146.908 206.789 157.006 199.239 164.026C191.713 171.024 181.812 174.86 171.146 176.582C149.847 180.022 125.121 175.1 108.869 169.537L109.715 167.066C125.755 172.557 150.018 177.35 170.729 174.005C181.068 172.335 190.429 168.653 197.461 162.114C204.47 155.597 209.278 146.139 210.352 132.684L212.955 132.892Z" fill="url(#paint26_linear_1125_330)"/>
<path d="M216.077 96.8152C218.461 112.288 216.352 124.508 211.229 134.051C206.108 143.589 198.045 150.331 188.734 154.971C170.163 164.226 146.44 165.219 130.291 163.332L130.594 160.738C146.476 162.593 169.626 161.576 187.569 152.634C196.515 148.176 204.119 141.773 208.927 132.816C213.733 123.865 215.812 112.24 213.496 97.213L216.077 96.8152Z" fill="url(#paint27_linear_1125_330)"/>
<path d="M7.13928 91.6968C10.3675 103.096 20.7585 114.697 32.6945 124.644C44.5809 134.549 57.7773 142.633 66.2814 147.036L65.0808 149.354C56.4376 144.879 43.0772 136.695 31.0227 126.649C19.0179 116.646 8.08363 104.615 4.62695 92.4088L7.13928 91.6968Z" fill="url(#paint28_linear_1125_330)"/>
<path d="M35.3472 34.4252C25.2536 71.5038 41.804 105.557 51.3111 117.89L49.243 119.485C39.4268 106.75 22.4487 71.8655 32.8272 33.7397L35.3472 34.4252Z" fill="url(#paint29_linear_1125_330)"/>
<path d="M145.463 33.3007C166.508 32.3101 188.544 37.524 204.043 56.2288L202.032 57.895C187.24 40.0422 166.146 34.9411 145.585 35.9089C125.01 36.8774 105.152 43.9251 93.181 50.126L91.9805 47.8075C104.207 41.4744 124.432 34.2906 145.463 33.3007Z" fill="url(#paint30_linear_1125_330)"/>
<path d="M109.6 46.9669C130.486 38.8444 180.447 37.5519 214.864 95.8281L212.616 97.1557C178.931 40.1185 130.396 41.6809 110.546 49.4001L109.6 46.9669Z" fill="url(#paint31_linear_1125_330)"/>
<path d="M129.392 50.0364C141.41 52.4223 159.92 59.3288 176.577 72.3132C193.254 85.3131 208.122 104.447 212.679 131.264L210.105 131.702C205.68 105.666 191.258 87.0677 174.972 74.3727C158.666 61.6624 140.54 54.912 128.883 52.5977L129.392 50.0364Z" fill="url(#paint32_linear_1125_330)"/>
<path d="M153.154 67.2415C166.13 76.8741 182.844 94.4945 190.779 116.116C198.752 137.838 197.831 163.548 175.554 189.007L173.589 187.287C195.181 162.61 196.002 137.923 188.328 117.016C180.618 96.0083 164.3 78.7682 151.598 69.3386L153.154 67.2415Z" fill="url(#paint33_linear_1125_330)"/>
<path d="M167.144 90.9883C172.702 103.163 178.255 123.562 176.908 145.325C175.559 167.124 167.277 190.353 145.095 207.971L143.471 205.926C164.949 188.867 172.987 166.398 174.301 145.163C175.618 123.893 170.178 103.921 164.768 92.0726L167.144 90.9883Z" fill="url(#paint34_linear_1125_330)"/>
<path d="M167.251 122.174C169.492 139.298 161.867 181.118 114.471 213.768L112.99 211.618C159.6 179.509 166.772 138.639 164.662 122.513L167.251 122.174Z" fill="url(#paint35_linear_1125_330)"/>
<path d="M152.105 147.056C150.392 160.341 134.862 191.235 87.0889 211.803L86.0566 209.405C133.189 189.113 147.946 158.89 149.515 146.723L152.105 147.056Z" fill="url(#paint36_linear_1125_330)"/>
<path d="M123.173 166.178C111.351 175.851 75.9694 191.347 27.7227 177.653L28.4357 175.14C75.8656 188.603 110.362 173.286 121.519 164.158L123.173 166.178Z" fill="url(#paint37_linear_1125_330)"/>
<path d="M13.1998 147.675C45.9861 172.42 86.0331 169.673 101.888 165.217L102.594 167.731C86.2431 172.327 45.2711 175.151 11.627 149.759L13.1998 147.675Z" fill="url(#paint38_linear_1125_330)"/>
<defs>
<linearGradient id="paint0_linear_1125_330" x1="51.8281" y1="179.055" x2="134.336" y2="181.313" gradientUnits="userSpaceOnUse">
<stop stop-color="#A2D18C"/>
<stop offset="0.480769" stop-color="#60B194"/>
<stop offset="1" stop-color="#2FB8DE"/>
</linearGradient>
<linearGradient id="paint1_linear_1125_330" x1="59.7422" y1="38.6938" x2="137.957" y2="39.8479" gradientUnits="userSpaceOnUse">
<stop stop-color="#A2D18C"/>
<stop offset="0.480769" stop-color="#60B194"/>
<stop offset="1" stop-color="#2FB8DE"/>
</linearGradient>
<linearGradient id="paint2_linear_1125_330" x1="49.4941" y1="46.3521" x2="102.212" y2="46.7388" gradientUnits="userSpaceOnUse">
<stop stop-color="#A2D18C"/>
<stop offset="0.480769" stop-color="#60B194"/>
<stop offset="1" stop-color="#2FB8DE"/>
</linearGradient>
<linearGradient id="paint3_linear_1125_330" x1="43.2129" y1="57.8407" x2="60.5175" y2="57.8836" gradientUnits="userSpaceOnUse">
<stop stop-color="#A2D18C"/>
<stop offset="0.480769" stop-color="#60B194"/>
<stop offset="1" stop-color="#2FB8DE"/>
</linearGradient>
<linearGradient id="paint4_linear_1125_330" x1="13.3262" y1="96.1943" x2="57.2155" y2="96.4976" gradientUnits="userSpaceOnUse">
<stop stop-color="#A2D18C"/>
<stop offset="0.480769" stop-color="#60B194"/>
<stop offset="1" stop-color="#2FB8DE"/>
</linearGradient>
<linearGradient id="paint5_linear_1125_330" x1="2.05469" y1="140.196" x2="86.841" y2="142.122" gradientUnits="userSpaceOnUse">
<stop stop-color="#A2D18C"/>
<stop offset="0.480769" stop-color="#60B194"/>
<stop offset="1" stop-color="#2FB8DE"/>
</linearGradient>
<linearGradient id="paint6_linear_1125_330" x1="91.2109" y1="175.958" x2="203.267" y2="180.339" gradientUnits="userSpaceOnUse">
<stop stop-color="#A2D18C"/>
<stop offset="0.480769" stop-color="#60B194"/>
<stop offset="1" stop-color="#2FB8DE"/>
</linearGradient>
<linearGradient id="paint7_linear_1125_330" x1="52.8359" y1="172.615" x2="119.148" y2="173.287" gradientUnits="userSpaceOnUse">
<stop stop-color="#A2D18C"/>
<stop offset="0.480769" stop-color="#60B194"/>
<stop offset="1" stop-color="#2FB8DE"/>
</linearGradient>
<linearGradient id="paint8_linear_1125_330" x1="11.8535" y1="130.017" x2="53.5074" y2="130.241" gradientUnits="userSpaceOnUse">
<stop stop-color="#A2D18C"/>
<stop offset="0.480769" stop-color="#60B194"/>
<stop offset="1" stop-color="#2FB8DE"/>
</linearGradient>
<linearGradient id="paint9_linear_1125_330" x1="25.9727" y1="148.171" x2="52.0474" y2="148.261" gradientUnits="userSpaceOnUse">
<stop stop-color="#A2D18C"/>
<stop offset="0.480769" stop-color="#60B194"/>
<stop offset="1" stop-color="#2FB8DE"/>
</linearGradient>
<linearGradient id="paint10_linear_1125_330" x1="40.9355" y1="162.25" x2="82.9205" y2="162.488" gradientUnits="userSpaceOnUse">
<stop stop-color="#A2D18C"/>
<stop offset="0.480769" stop-color="#60B194"/>
<stop offset="1" stop-color="#2FB8DE"/>
</linearGradient>
<linearGradient id="paint11_linear_1125_330" x1="-2.66068e-08" y1="88.3801" x2="81.315" y2="89.5093" gradientUnits="userSpaceOnUse">
<stop stop-color="#A2D18C"/>
<stop offset="0.480769" stop-color="#60B194"/>
<stop offset="1" stop-color="#2FB8DE"/>
</linearGradient>
<linearGradient id="paint12_linear_1125_330" x1="4.39844" y1="106.743" x2="66.3058" y2="107.295" gradientUnits="userSpaceOnUse">
<stop stop-color="#A2D18C"/>
<stop offset="0.480769" stop-color="#60B194"/>
<stop offset="1" stop-color="#2FB8DE"/>
</linearGradient>
<linearGradient id="paint13_linear_1125_330" x1="2.75977" y1="68.9889" x2="89.8506" y2="71.1204" gradientUnits="userSpaceOnUse">
<stop stop-color="#A2D18C"/>
<stop offset="0.480769" stop-color="#60B194"/>
<stop offset="1" stop-color="#2FB8DE"/>
</linearGradient>
<linearGradient id="paint14_linear_1125_330" x1="13.7227" y1="46.5839" x2="103.798" y2="49.822" gradientUnits="userSpaceOnUse">
<stop stop-color="#A2D18C"/>
<stop offset="0.480769" stop-color="#60B194"/>
<stop offset="1" stop-color="#2FB8DE"/>
</linearGradient>
<linearGradient id="paint15_linear_1125_330" x1="31.6074" y1="32.6774" x2="127.097" y2="35.8199" gradientUnits="userSpaceOnUse">
<stop stop-color="#A2D18C"/>
<stop offset="0.480769" stop-color="#60B194"/>
<stop offset="1" stop-color="#2FB8DE"/>
</linearGradient>
<linearGradient id="paint16_linear_1125_330" x1="58.3789" y1="31.8823" x2="146.112" y2="33.6575" gradientUnits="userSpaceOnUse">
<stop stop-color="#A2D18C"/>
<stop offset="0.480769" stop-color="#60B194"/>
<stop offset="1" stop-color="#2FB8DE"/>
</linearGradient>
<linearGradient id="paint17_linear_1125_330" x1="82.6699" y1="34.5108" x2="155.49" y2="35.4939" gradientUnits="userSpaceOnUse">
<stop stop-color="#A2D18C"/>
<stop offset="0.480769" stop-color="#60B194"/>
<stop offset="1" stop-color="#2FB8DE"/>
</linearGradient>
<linearGradient id="paint18_linear_1125_330" x1="109.01" y1="49.2402" x2="177.744" y2="49.8385" gradientUnits="userSpaceOnUse">
<stop stop-color="#A2D18C"/>
<stop offset="0.480769" stop-color="#60B194"/>
<stop offset="1" stop-color="#2FB8DE"/>
</linearGradient>
<linearGradient id="paint19_linear_1125_330" x1="164.018" y1="72.2784" x2="194.099" y2="72.3807" gradientUnits="userSpaceOnUse">
<stop stop-color="#A2D18C"/>
<stop offset="0.480769" stop-color="#60B194"/>
<stop offset="1" stop-color="#2FB8DE"/>
</linearGradient>
<linearGradient id="paint20_linear_1125_330" x1="151.322" y1="90.9215" x2="206.925" y2="91.2505" gradientUnits="userSpaceOnUse">
<stop stop-color="#A2D18C"/>
<stop offset="0.480769" stop-color="#60B194"/>
<stop offset="1" stop-color="#2FB8DE"/>
</linearGradient>
<linearGradient id="paint21_linear_1125_330" x1="139.561" y1="109.406" x2="216.667" y2="110.167" gradientUnits="userSpaceOnUse">
<stop stop-color="#A2D18C"/>
<stop offset="0.480769" stop-color="#60B194"/>
<stop offset="1" stop-color="#2FB8DE"/>
</linearGradient>
<linearGradient id="paint22_linear_1125_330" x1="47.4043" y1="106.136" x2="169.613" y2="107.661" gradientUnits="userSpaceOnUse">
<stop stop-color="#A2D18C"/>
<stop offset="0.480769" stop-color="#60B194"/>
<stop offset="1" stop-color="#2FB8DE"/>
</linearGradient>
<linearGradient id="paint23_linear_1125_330" x1="62.8437" y1="179.751" x2="147.752" y2="181.107" gradientUnits="userSpaceOnUse">
<stop stop-color="#A2D18C"/>
<stop offset="0.480769" stop-color="#60B194"/>
<stop offset="1" stop-color="#2FB8DE"/>
</linearGradient>
<linearGradient id="paint24_linear_1125_330" x1="77.7578" y1="36.8876" x2="165.047" y2="39.3283" gradientUnits="userSpaceOnUse">
<stop stop-color="#A2D18C"/>
<stop offset="0.480769" stop-color="#60B194"/>
<stop offset="1" stop-color="#2FB8DE"/>
</linearGradient>
<linearGradient id="paint25_linear_1125_330" x1="77.6055" y1="183.148" x2="175.479" y2="185.654" gradientUnits="userSpaceOnUse">
<stop stop-color="#A2D18C"/>
<stop offset="0.480769" stop-color="#60B194"/>
<stop offset="1" stop-color="#2FB8DE"/>
</linearGradient>
<linearGradient id="paint26_linear_1125_330" x1="108.869" y1="154.912" x2="212.883" y2="157.95" gradientUnits="userSpaceOnUse">
<stop stop-color="#A2D18C"/>
<stop offset="0.480769" stop-color="#60B194"/>
<stop offset="1" stop-color="#2FB8DE"/>
</linearGradient>
<linearGradient id="paint27_linear_1125_330" x1="130.291" y1="130.034" x2="217.046" y2="131.448" gradientUnits="userSpaceOnUse">
<stop stop-color="#A2D18C"/>
<stop offset="0.480769" stop-color="#60B194"/>
<stop offset="1" stop-color="#2FB8DE"/>
</linearGradient>
<linearGradient id="paint28_linear_1125_330" x1="4.62695" y1="120.152" x2="66.2802" y2="120.985" gradientUnits="userSpaceOnUse">
<stop stop-color="#A2D18C"/>
<stop offset="0.480769" stop-color="#60B194"/>
<stop offset="1" stop-color="#2FB8DE"/>
</linearGradient>
<linearGradient id="paint29_linear_1125_330" x1="29.582" y1="76.0573" x2="51.3145" y2="76.1269" gradientUnits="userSpaceOnUse">
<stop stop-color="#A2D18C"/>
<stop offset="0.480769" stop-color="#60B194"/>
<stop offset="1" stop-color="#2FB8DE"/>
</linearGradient>
<linearGradient id="paint30_linear_1125_330" x1="91.9805" y1="45.3804" x2="203.694" y2="51.7826" gradientUnits="userSpaceOnUse">
<stop stop-color="#A2D18C"/>
<stop offset="0.480769" stop-color="#60B194"/>
<stop offset="1" stop-color="#2FB8DE"/>
</linearGradient>
<linearGradient id="paint31_linear_1125_330" x1="109.6" y1="69.6804" x2="214.818" y2="72.2604" gradientUnits="userSpaceOnUse">
<stop stop-color="#A2D18C"/>
<stop offset="0.480769" stop-color="#60B194"/>
<stop offset="1" stop-color="#2FB8DE"/>
</linearGradient>
<linearGradient id="paint32_linear_1125_330" x1="128.883" y1="90.3405" x2="212.679" y2="91.4271" gradientUnits="userSpaceOnUse">
<stop stop-color="#A2D18C"/>
<stop offset="0.480769" stop-color="#60B194"/>
<stop offset="1" stop-color="#2FB8DE"/>
</linearGradient>
<linearGradient id="paint33_linear_1125_330" x1="151.598" y1="127.336" x2="195.357" y2="127.535" gradientUnits="userSpaceOnUse">
<stop stop-color="#A2D18C"/>
<stop offset="0.480769" stop-color="#60B194"/>
<stop offset="1" stop-color="#2FB8DE"/>
</linearGradient>
<linearGradient id="paint34_linear_1125_330" x1="143.471" y1="148.723" x2="177.117" y2="148.845" gradientUnits="userSpaceOnUse">
<stop stop-color="#A2D18C"/>
<stop offset="0.480769" stop-color="#60B194"/>
<stop offset="1" stop-color="#2FB8DE"/>
</linearGradient>
<linearGradient id="paint35_linear_1125_330" x1="112.99" y1="167.378" x2="167.603" y2="167.79" gradientUnits="userSpaceOnUse">
<stop stop-color="#A2D18C"/>
<stop offset="0.480769" stop-color="#60B194"/>
<stop offset="1" stop-color="#2FB8DE"/>
</linearGradient>
<linearGradient id="paint36_linear_1125_330" x1="86.0566" y1="178.842" x2="152.105" y2="179.689" gradientUnits="userSpaceOnUse">
<stop stop-color="#A2D18C"/>
<stop offset="0.480769" stop-color="#60B194"/>
<stop offset="1" stop-color="#2FB8DE"/>
</linearGradient>
<linearGradient id="paint37_linear_1125_330" x1="27.7227" y1="173.486" x2="122.801" y2="179.553" gradientUnits="userSpaceOnUse">
<stop stop-color="#A2D18C"/>
<stop offset="0.480769" stop-color="#60B194"/>
<stop offset="1" stop-color="#2FB8DE"/>
</linearGradient>
<linearGradient id="paint38_linear_1125_330" x1="11.627" y1="159.074" x2="102.384" y2="163.591" gradientUnits="userSpaceOnUse">
<stop stop-color="#A2D18C"/>
<stop offset="0.480769" stop-color="#60B194"/>
<stop offset="1" stop-color="#2FB8DE"/>
</linearGradient>
</defs>
</svg>
